  0
SECTION
  2
HEADER
  9
$ACADVER
  1
AC1014
  9
$HANDSEED
  5
FFFF
  9
$MEASUREMENT
 70
     1
  0
ENDSEC
  0
SECTION
  2
TABLES
  0
TABLE
  2
VPORT
  5
8
330
0
100
AcDbSymbolTable
 70
     4
  0
VPORT
  5
2E
330
8
100
AcDbSymbolTableRecord
100
AcDbViewportTableRecord
  2
*ACTIVE
 70
     0
 10
0.0
 20
0.0
 11
1.0
 21
1.0
 12
210.0
 22
148.5
 13
0.0
 23
0.0
 14
10.0
 24
10.0
 15
10.0
 25
10.0
 16
0.0
 26
0.0
 36
1.0
 17
0.0
 27
0.0
 37
0.0
 40
341.0
 41
1.24
 42
50.0
 43
0.0
 44
0.0
 50
0.0
 51
0.0
 71
     0
 72
   100
 73
     1
 74
     3
 75
     0
 76
     0
 77
     0
 78
     0
  0
ENDTAB
  0
TABLE
  2
LTYPE
  5
5
330
0
100
AcDbSymbolTable
 70
     1
  0
LTYPE
  5
14
330
5
100
AcDbSymbolTableRecord
100
AcDbLinetypeTableRecord
  2
BYBLOCK
 70
     0
  3

 72
    65
 73
     0
 40
0.0
  0
LTYPE
  5
15
330
5
100
AcDbSymbolTableRecord
100
AcDbLinetypeTableRecord
  2
BYLAYER
 70
     0
  3

 72
    65
 73
     0
 40
0.0
  0
LTYPE
  5
16
330
5
100
AcDbSymbolTableRecord
100
AcDbLinetypeTableRecord
  2
CONTINUOUS
 70
     0
  3
Solid line
 72
    65
 73
     0
 40
0.0
  0
ENDTAB
  0
TABLE
  2
LAYER
  5
2
100
AcDbSymbolTable
 70
1
  0
LAYER
  5
50
100
AcDbSymbolTableRecord
100
AcDbLayerTableRecord
  2
0
 70
0
  6
CONTINUOUS
  0
ENDTAB
  0
TABLE
  2
STYLE
  5
3
330
0
100
AcDbSymbolTable
 70
     1
  0
STYLE
  5
11
330
3
100
AcDbSymbolTableRecord
100
AcDbTextStyleTableRecord
  2
STANDARD
 70
     0
 40
0.0
 41
1.0
 50
0.0
 71
     0
 42
2.5
  3
txt
  4

  0
ENDTAB
  0
TABLE
  2
VIEW
  5
6
330
0
100
AcDbSymbolTable
 70
     0
  0
ENDTAB
  0
TABLE
  2
UCS
  5
7
330
0
100
AcDbSymbolTable
 70
     0
  0
ENDTAB
  0
TABLE
  2
APPID
  5
9
330
0
100
AcDbSymbolTable
 70
     2
  0
APPID
  5
12
330
9
100
AcDbSymbolTableRecord
100
AcDbRegAppTableRecord
  2
ACAD
 70
     0
  0
ENDTAB
  0
TABLE
  2
DIMSTYLE
  5
A
330
0
100
AcDbSymbolTable
 70
     1
  0
DIMSTYLE
105
27
330
A
100
AcDbSymbolTableRecord
100
AcDbDimStyleTableRecord
  2
ISO-25
 70
     0
  3

  4

  5

  6

  7

 40
1.0
 41
2.5
 42
0.625
 43
3.75
 44
1.25
 45
0.0
 46
0.0
 47
0.0
 48
0.0
140
2.5
141
2.5
142
0.0
143
0.03937007874016
144
1.0
145
0.0
146
1.0
147
0.625
 71
     0
 72
     0
 73
     0
 74
     0
 75
     0
 76
     0
 77
     1
 78
     8
170
     0
171
     3
172
     1
173
     0
174
     0
175
     0
176
     0
177
     0
178
     0
270
     2
271
     2
272
     2
273
     2
274
     3
340
11
275
     0
280
     0
281
     0
282
     0
283
     0
284
     8
285
     0
286
     0
287
     3
288
     0
  0
ENDTAB
  0
TABLE
  2
BLOCK_RECORD
  5
1
330
0
100
AcDbSymbolTable
 70
     1
  0
BLOCK_RECORD
  5
1F
330
1
100
AcDbSymbolTableRecord
100
AcDbBlockTableRecord
  2
*MODEL_SPACE
  0
BLOCK_RECORD
  5
1B
330
1
100
AcDbSymbolTableRecord
100
AcDbBlockTableRecord
  2
*PAPER_SPACE
  0
ENDTAB
  0
ENDSEC
  0
SECTION
  2
BLOCKS
  0
BLOCK
  5
20
330
1F
100
AcDbEntity
  8
0
100
AcDbBlockBegin
  2
*MODEL_SPACE
 70
     0
 10
0.0
 20
0.0
 30
0.0
  3
*MODEL_SPACE
  1

  0
ENDBLK
  5
21
330
1F
100
AcDbEntity
  8
0
100
AcDbBlockEnd
  0
BLOCK
  5
1C
330
1B
100
AcDbEntity
 67
     1
  8
0
100
AcDbBlockBegin
  2
*PAPER_SPACE
  1

  0
ENDBLK
  5
1D
330
1B
100
AcDbEntity
 67
     1
  8
0
100
AcDbBlockEnd
  0
ENDSEC
  0
SECTION
  2
ENTITIES
  0
LWPOLYLINE
  5
100
100
AcDbEntity
  8
0
 62
7
100
AcDbPolyline
 90
24
 70
1
 10
7.668271
 20
2.065222
 30
0.0
 10
7.147599
 20
2.465872
 30
0.0
 10
6.648845
 20
3.004155
 30
0.0
 10
6.219063
 20
3.621502
 30
0.0
 10
5.905307
 20
4.259347
 30
0.0
 10
5.745650
 20
5.156235
 30
0.0
 10
5.869444
 20
6.107047
 30
0.0
 10
6.238232
 20
6.970192
 30
0.0
 10
6.813557
 20
7.604093
 30
0.0
 10
7.819398
 20
8.074200
 30
0.0
 10
9.072387
 20
8.326290
 30
0.0
 10
10.342322
 20
8.336415
 30
0.0
 10
11.399004
 20
8.080672
 30
0.0
 10
12.226660
 20
7.501785
 30
0.0
 10
12.802141
 20
6.676132
 30
0.0
 10
13.085035
 20
5.689050
 30
0.0
 10
13.034935
 20
4.625888
 30
0.0
 10
12.687592
 20
3.719145
 30
0.0
 10
12.081703
 20
2.949390
 30
0.0
 10
11.250933
 20
2.348715
 30
0.0
 10
10.228945
 20
1.949242
 30
0.0
 10
9.416562
 20
1.780567
 30
0.0
 10
8.745186
 20
1.742467
 30
0.0
 10
8.175521
 20
1.836757
 30
0.0
  0
LWPOLYLINE
  5
101
100
AcDbEntity
  8
0
 62
7
100
AcDbPolyline
 90
16
 70
1
 10
10.310334
 20
3.553057
 30
0.0
 10
10.991647
 20
4.419030
 30
0.0
 10
10.901170
 20
5.437897
 30
0.0
 10
10.204081
 20
6.229867
 30
0.0
 10
9.065551
 20
6.415140
 30
0.0
 10
8.515482
 20
6.218107
 30
0.0
 10
8.089805
 20
5.874292
 30
0.0
 10
7.815964
 20
5.415202
 30
0.0
 10
7.721401
 20
4.872330
 30
0.0
 10
7.736911
 20
4.612830
 30
0.0
 10
7.776069
 20
4.366890
 30
0.0
 10
7.832897
 20
4.162245
 30
0.0
 10
7.901409
 20
4.026645
 30
0.0
 10
8.407633
 20
3.587100
 30
0.0
 10
9.029330
 20
3.351532
 30
0.0
 10
9.689300
 20
3.335107
 30
0.0
  0
LWPOLYLINE
  5
102
100
AcDbEntity
  8
0
 62
7
100
AcDbPolyline
 90
16
 70
1
 10
8.951102
 20
4.259535
 30
0.0
 10
8.743021
 20
4.694887
 30
0.0
 10
8.797434
 20
5.188800
 30
0.0
 10
9.061903
 20
5.593507
 30
0.0
 10
9.483991
 20
5.761252
 30
0.0
 10
9.706621
 20
5.672242
 30
0.0
 10
9.927739
 20
5.449230
 30
0.0
 10
10.097189
 20
5.158215
 30
0.0
 10
10.164817
 20
4.865212
 30
0.0
 10
10.083219
 20
4.605765
 30
0.0
 10
9.882079
 20
4.334167
 30
0.0
 10
9.626879
 20
4.120095
 30
0.0
 10
9.383099
 20
4.033252
 30
0.0
 10
9.285372
 20
4.051102
 30
0.0
 10
9.171346
 20
4.099702
 30
0.0
 10
9.055197
 20
4.171627
 30
0.0
  0
LWPOLYLINE
  5
103
100
AcDbEntity
  8
0
 62
7
100
AcDbPolyline
 90
32
 70
1
 10
5.416479
 20
8.781592
 30
0.0
 10
5.073524
 20
9.354915
 30
0.0
 10
5.044341
 20
10.009762
 30
0.0
 10
5.313707
 20
10.663207
 30
0.0
 10
5.866397
 20
11.232330
 30
0.0
 10
7.609111
 20
11.858272
 30
0.0
 10
9.850337
 20
11.935612
 30
0.0
 10
11.911973
 20
11.517975
 30
0.0
 10
13.115919
 20
10.658992
 30
0.0
 10
13.224877
 20
10.230225
 30
0.0
 10
13.247069
 20
9.646275
 30
0.0
 10
13.187617
 20
9.067013
 30
0.0
 10
13.051642
 20
8.652285
 30
0.0
 10
12.850083
 20
8.572703
 30
0.0
 10
12.361290
 20
8.612603
 30
0.0
 10
11.508257
 20
8.784157
 30
0.0
 10
10.213979
 20
9.099510
 30
0.0
 10
9.920268
 20
9.174135
 30
0.0
 10
9.626557
 20
9.248760
 30
0.0
 10
9.332845
 20
9.323385
 30
0.0
 10
9.039134
 20
9.398010
 30
0.0
 10
8.670468
 20
9.285420
 30
0.0
 10
8.301802
 20
9.172838
 30
0.0
 10
7.933135
 20
9.060248
 30
0.0
 10
7.564469
 20
8.947665
 30
0.0
 10
6.547129
 20
8.645970
 30
0.0
 10
5.976540
 20
8.527523
 30
0.0
 10
5.662920
 20
8.577623
 30
0.0
 10
5.416484
 20
8.781653
 30
0.0
 10
5.416483
 20
8.781653
 30
0.0
 10
5.416481
 20
8.781653
 30
0.0
 10
5.416479
 20
8.781653
 30
0.0
  0
LWPOLYLINE
  5
104
100
AcDbEntity
  8
0
 62
7
100
AcDbPolyline
 90
116
 70
1
 10
12.088854
 20
12.383813
 30
0.0
 10
11.433478
 20
12.541005
 30
0.0
 10
10.479496
 20
12.647955
 30
0.0
 10
9.426640
 20
12.689880
 30
0.0
 10
8.474649
 20
12.651855
 30
0.0
 10
7.992327
 20
12.604005
 30
0.0
 10
7.505407
 20
12.555780
 30
0.0
 10
7.070651
 20
12.512805
 30
0.0
 10
6.744819
 20
12.480705
 30
0.0
 10
6.591819
 20
12.465705
 30
0.0
 10
6.438819
 20
12.450705
 30
0.0
 10
6.285819
 20
12.435705
 30
0.0
 10
6.132819
 20
12.420705
 30
0.0
 10
6.132819
 20
12.605925
 30
0.0
 10
6.132819
 20
12.791145
 30
0.0
 10
6.132819
 20
12.976365
 30
0.0
 10
6.132819
 20
13.161585
 30
0.0
 10
5.941702
 20
14.135385
 30
0.0
 10
5.414485
 20
14.863192
 30
0.0
 10
4.620369
 20
15.284820
 30
0.0
 10
3.628554
 20
15.340095
 30
0.0
 10
2.960644
 20
15.262237
 30
0.0
 10
2.427274
 20
15.230437
 30
0.0
 10
2.054176
 20
15.245212
 30
0.0
 10
1.867081
 20
15.307087
 30
0.0
 10
1.804374
 20
15.420105
 30
0.0
 10
1.726059
 20
15.656640
 30
0.0
 10
1.682776
 20
15.977002
 30
0.0
 10
1.725162
 20
16.341495
 30
0.0
 10
1.869139
 20
16.706137
 30
0.0
 10
2.053931
 20
17.033010
 30
0.0
 10
2.215094
 20
17.291445
 30
0.0
 10
2.288184
 20
17.450790
 30
0.0
 10
2.302731
 20
17.539950
 30
0.0
 10
2.328736
 20
17.604225
 30
0.0
 10
2.362527
 20
17.637675
 30
0.0
 10
2.400429
 20
17.633925
 30
0.0
 10
2.458277
 20
17.634675
 30
0.0
 10
2.546335
 20
17.680500
 30
0.0
 10
2.652642
 20
17.763217
 30
0.0
 10
2.765236
 20
17.874877
 30
0.0
 10
3.139204
 20
18.205642
 30
0.0
 10
3.581057
 20
18.422340
 30
0.0
 10
4.137879
 20
18.540772
 30
0.0
 10
4.856755
 20
18.576697
 30
0.0
 10
5.630941
 20
18.523597
 30
0.0
 10
6.222166
 20
18.342712
 30
0.0
 10
6.696424
 20
18.001725
 30
0.0
 10
7.119707
 20
17.468317
 30
0.0
 10
7.286170
 20
17.243287
 30
0.0
 10
7.441764
 20
17.098140
 30
0.0
 10
7.596425
 20
17.025915
 30
0.0
 10
7.760086
 20
17.019915
 30
0.0
 10
8.017154
 20
17.164830
 30
0.0
 10
8.118530
 20
17.507850
 30
0.0
 10
8.064500
 20
18.054270
 30
0.0
 10
7.855345
 20
18.809422
 30
0.0
 10
7.693411
 20
19.333057
 30
0.0
 10
7.623204
 20
19.707465
 30
0.0
 10
7.636284
 20
20.036580
 30
0.0
 10
7.724214
 20
20.424352
 30
0.0
 10
7.991358
 20
21.202447
 30
0.0
 10
8.348629
 20
21.969487
 30
0.0
 10
8.737371
 20
22.614465
 30
0.0
 10
9.098926
 20
23.026342
 30
0.0
 10
9.739861
 20
23.312655
 30
0.0
 10
10.383158
 20
23.182710
 30
0.0
 10
11.008724
 20
22.647045
 30
0.0
 10
11.596464
 20
21.716205
 30
0.0
 10
11.767447
 20
21.356557
 30
0.0
 10
11.907466
 20
21.028755
 30
0.0
 10
12.002072
 20
20.768977
 30
0.0
 10
12.036820
 20
20.613412
 30
0.0
 10
12.007750
 20
20.432085
 30
0.0
 10
11.928606
 20
20.102160
 30
0.0
 10
11.811473
 20
19.670535
 30
0.0
 10
11.668440
 20
19.184107
 30
0.0
 10
11.431984
 20
18.294952
 30
0.0
 10
11.352192
 20
17.680507
 30
0.0
 10
11.429025
 20
17.324077
 30
0.0
 10
11.662440
 20
17.208975
 30
0.0
 10
11.796964
 20
17.242725
 30
0.0
 10
11.918116
 20
17.346990
 30
0.0
 10
12.029578
 20
17.526240
 30
0.0
 10
12.135030
 20
17.784967
 30
0.0
 10
12.232021
 20
18.028350
 30
0.0
 10
12.348932
 20
18.265237
 30
0.0
 10
12.471043
 20
18.468517
 30
0.0
 10
12.583635
 20
18.611085
 30
0.0
 10
12.957373
 20
18.823095
 30
0.0
 10
13.508389
 20
18.944542
 30
0.0
 10
14.139975
 20
18.963892
 30
0.0
 10
14.755417
 20
18.869670
 30
0.0
 10
15.674981
 20
18.393690
 30
0.0
 10
16.515694
 20
17.577937
 30
0.0
 10
17.128096
 20
16.606260
 30
0.0
 10
17.362725
 20
15.662512
 30
0.0
 10
17.322630
 20
15.168172
 30
0.0
 10
17.145955
 20
14.947777
 30
0.0
 10
16.739682
 20
14.969602
 30
0.0
 10
16.010791
 20
15.201952
 30
0.0
 10
15.406832
 20
15.404737
 30
0.0
 10
14.996173
 20
15.500617
 30
0.0
 10
14.676292
 20
15.503617
 30
0.0
 10
14.344666
 20
15.427237
 30
0.0
 10
13.884220
 20
15.202665
 30
0.0
 10
13.525383
 20
14.806462
 30
0.0
 10
13.233958
 20
14.185117
 30
0.0
 10
12.975751
 20
13.285110
 30
0.0
 10
12.809798
 20
12.668460
 30
0.0
 10
12.648200
 20
12.354870
 30
0.0
 10
12.428681
 20
12.281070
 30
0.0
 10
12.088966
 20
12.383692
 30
0.0
 10
12.088938
 20
12.383692
 30
0.0
 10
12.088910
 20
12.383692
 30
0.0
 10
12.088882
 20
12.383692
 30
0.0
  0
ENDSEC
  0
SECTION
  2
OBJECTS
  0
DICTIONARY
  5
C
330
0
100
AcDbDictionary
  3
ACAD_GROUP
350
D
  3
ACAD_MLINESTYLE
350
17
  0
DICTIONARY
  5
D
330
C
100
AcDbDictionary
  0
DICTIONARY
  5
1A
330
C
100
AcDbDictionary
  0
DICTIONARY
  5
17
330
C
100
AcDbDictionary
  3
STANDARD
350
18
  0
DICTIONARY
  5
19
330
C
100
AcDbDictionary
  0
ENDSEC
  0
EOF
