  0
SECTION
  2
HEADER
  9
$ACADVER
  1
AC1014
  9
$HANDSEED
  5
FFFF
  9
$MEASUREMENT
 70
     1
  0
ENDSEC
  0
SECTION
  2
TABLES
  0
TABLE
  2
VPORT
  5
8
330
0
100
AcDbSymbolTable
 70
     4
  0
VPORT
  5
2E
330
8
100
AcDbSymbolTableRecord
100
AcDbViewportTableRecord
  2
*ACTIVE
 70
     0
 10
0.0
 20
0.0
 11
1.0
 21
1.0
 12
210.0
 22
148.5
 13
0.0
 23
0.0
 14
10.0
 24
10.0
 15
10.0
 25
10.0
 16
0.0
 26
0.0
 36
1.0
 17
0.0
 27
0.0
 37
0.0
 40
341.0
 41
1.24
 42
50.0
 43
0.0
 44
0.0
 50
0.0
 51
0.0
 71
     0
 72
   100
 73
     1
 74
     3
 75
     0
 76
     0
 77
     0
 78
     0
  0
ENDTAB
  0
TABLE
  2
LTYPE
  5
5
330
0
100
AcDbSymbolTable
 70
     1
  0
LTYPE
  5
14
330
5
100
AcDbSymbolTableRecord
100
AcDbLinetypeTableRecord
  2
BYBLOCK
 70
     0
  3

 72
    65
 73
     0
 40
0.0
  0
LTYPE
  5
15
330
5
100
AcDbSymbolTableRecord
100
AcDbLinetypeTableRecord
  2
BYLAYER
 70
     0
  3

 72
    65
 73
     0
 40
0.0
  0
LTYPE
  5
16
330
5
100
AcDbSymbolTableRecord
100
AcDbLinetypeTableRecord
  2
CONTINUOUS
 70
     0
  3
Solid line
 72
    65
 73
     0
 40
0.0
  0
ENDTAB
  0
TABLE
  2
LAYER
  5
2
100
AcDbSymbolTable
 70
1
  0
LAYER
  5
50
100
AcDbSymbolTableRecord
100
AcDbLayerTableRecord
  2
0
 70
0
  6
CONTINUOUS
  0
ENDTAB
  0
TABLE
  2
STYLE
  5
3
330
0
100
AcDbSymbolTable
 70
     1
  0
STYLE
  5
11
330
3
100
AcDbSymbolTableRecord
100
AcDbTextStyleTableRecord
  2
STANDARD
 70
     0
 40
0.0
 41
1.0
 50
0.0
 71
     0
 42
2.5
  3
txt
  4

  0
ENDTAB
  0
TABLE
  2
VIEW
  5
6
330
0
100
AcDbSymbolTable
 70
     0
  0
ENDTAB
  0
TABLE
  2
UCS
  5
7
330
0
100
AcDbSymbolTable
 70
     0
  0
ENDTAB
  0
TABLE
  2
APPID
  5
9
330
0
100
AcDbSymbolTable
 70
     2
  0
APPID
  5
12
330
9
100
AcDbSymbolTableRecord
100
AcDbRegAppTableRecord
  2
ACAD
 70
     0
  0
ENDTAB
  0
TABLE
  2
DIMSTYLE
  5
A
330
0
100
AcDbSymbolTable
 70
     1
  0
DIMSTYLE
105
27
330
A
100
AcDbSymbolTableRecord
100
AcDbDimStyleTableRecord
  2
ISO-25
 70
     0
  3

  4

  5

  6

  7

 40
1.0
 41
2.5
 42
0.625
 43
3.75
 44
1.25
 45
0.0
 46
0.0
 47
0.0
 48
0.0
140
2.5
141
2.5
142
0.0
143
0.03937007874016
144
1.0
145
0.0
146
1.0
147
0.625
 71
     0
 72
     0
 73
     0
 74
     0
 75
     0
 76
     0
 77
     1
 78
     8
170
     0
171
     3
172
     1
173
     0
174
     0
175
     0
176
     0
177
     0
178
     0
270
     2
271
     2
272
     2
273
     2
274
     3
340
11
275
     0
280
     0
281
     0
282
     0
283
     0
284
     8
285
     0
286
     0
287
     3
288
     0
  0
ENDTAB
  0
TABLE
  2
BLOCK_RECORD
  5
1
330
0
100
AcDbSymbolTable
 70
     1
  0
BLOCK_RECORD
  5
1F
330
1
100
AcDbSymbolTableRecord
100
AcDbBlockTableRecord
  2
*MODEL_SPACE
  0
BLOCK_RECORD
  5
1B
330
1
100
AcDbSymbolTableRecord
100
AcDbBlockTableRecord
  2
*PAPER_SPACE
  0
ENDTAB
  0
ENDSEC
  0
SECTION
  2
BLOCKS
  0
BLOCK
  5
20
330
1F
100
AcDbEntity
  8
0
100
AcDbBlockBegin
  2
*MODEL_SPACE
 70
     0
 10
0.0
 20
0.0
 30
0.0
  3
*MODEL_SPACE
  1

  0
ENDBLK
  5
21
330
1F
100
AcDbEntity
  8
0
100
AcDbBlockEnd
  0
BLOCK
  5
1C
330
1B
100
AcDbEntity
 67
     1
  8
0
100
AcDbBlockBegin
  2
*PAPER_SPACE
  1

  0
ENDBLK
  5
1D
330
1B
100
AcDbEntity
 67
     1
  8
0
100
AcDbBlockEnd
  0
ENDSEC
  0
SECTION
  2
ENTITIES
  0
LWPOLYLINE
  5
100
100
AcDbEntity
  8
0
 62
7
100
AcDbPolyline
 90
120
 70
1
 10
8.220819
 20
0.338700
 30
0.0
 10
6.986443
 20
0.909877
 30
0.0
 10
5.914087
 20
1.729222
 30
0.0
 10
5.055417
 20
2.747565
 30
0.0
 10
4.462097
 20
3.915735
 30
0.0
 10
4.291675
 20
4.539742
 30
0.0
 10
4.260034
 20
5.138977
 30
0.0
 10
4.371602
 20
5.782260
 30
0.0
 10
4.630809
 20
6.538432
 30
0.0
 10
4.727990
 20
6.781192
 30
0.0
 10
4.825172
 20
7.023945
 30
0.0
 10
4.922353
 20
7.266705
 30
0.0
 10
5.019534
 20
7.509457
 30
0.0
 10
4.890838
 20
7.641937
 30
0.0
 10
4.762142
 20
7.774410
 30
0.0
 10
4.633445
 20
7.906882
 30
0.0
 10
4.504749
 20
8.039362
 30
0.0
 10
4.292829
 20
8.277097
 30
0.0
 10
4.096365
 20
8.532675
 30
0.0
 10
3.937253
 20
8.775420
 30
0.0
 10
3.837392
 20
8.974627
 30
0.0
 10
3.693296
 20
9.675772
 30
0.0
 10
3.757813
 20
10.414200
 30
0.0
 10
4.021483
 20
11.147475
 30
0.0
 10
4.474847
 20
11.833170
 30
0.0
 10
4.723472
 20
12.247342
 30
0.0
 10
4.828660
 20
12.718537
 30
0.0
 10
4.789333
 20
13.230637
 30
0.0
 10
4.604409
 20
13.767495
 30
0.0
 10
4.373455
 20
14.093400
 30
0.0
 10
4.071278
 20
14.247645
 30
0.0
 10
3.697769
 20
14.230245
 30
0.0
 10
3.252819
 20
14.041245
 30
0.0
 10
2.812898
 20
13.872585
 30
0.0
 10
2.340510
 20
13.846185
 30
0.0
 10
1.846561
 20
13.961040
 30
0.0
 10
1.341954
 20
14.216160
 30
0.0
 10
1.096916
 20
14.365507
 30
0.0
 10
0.880027
 20
14.483167
 30
0.0
 10
0.714817
 20
14.557342
 30
0.0
 10
0.624819
 20
14.576167
 30
0.0
 10
0.585725
 20
14.578417
 30
0.0
 10
0.559119
 20
14.607292
 30
0.0
 10
0.547362
 20
14.657917
 30
0.0
 10
0.552819
 20
14.725342
 30
0.0
 10
0.555434
 20
14.793367
 30
0.0
 10
0.535943
 20
14.845417
 30
0.0
 10
0.497890
 20
14.876467
 30
0.0
 10
0.444818
 20
14.880967
 30
0.0
 10
0.302412
 20
15.098625
 30
0.0
 10
0.319026
 20
15.686550
 30
0.0
 10
0.468135
 20
16.431412
 30
0.0
 10
0.723211
 20
17.119867
 30
0.0
 10
1.688779
 20
18.489225
 30
0.0
 10
2.912978
 20
19.424482
 30
0.0
 10
4.270477
 20
19.859145
 30
0.0
 10
5.635944
 20
19.726695
 30
0.0
 10
5.842045
 20
19.666245
 30
0.0
 10
6.021637
 20
19.627545
 30
0.0
 10
6.155422
 20
19.613820
 30
0.0
 10
6.224102
 20
19.628370
 30
0.0
 10
6.267566
 20
19.730445
 30
0.0
 10
6.332684
 20
19.955152
 30
0.0
 10
6.410645
 20
20.269305
 30
0.0
 10
6.492639
 20
20.639722
 30
0.0
 10
7.116516
 20
22.424017
 30
0.0
 10
8.079030
 20
23.731695
 30
0.0
 10
9.262865
 20
24.451912
 30
0.0
 10
10.550701
 20
24.473812
 30
0.0
 10
11.546030
 20
23.868472
 30
0.0
 10
12.501040
 20
22.791645
 30
0.0
 10
13.188135
 20
21.562882
 30
0.0
 10
13.379716
 20
20.501737
 30
0.0
 10
13.344834
 20
20.228145
 30
0.0
 10
13.347909
 20
20.085382
 30
0.0
 10
13.393659
 20
20.056657
 30
0.0
 10
13.486884
 20
20.125057
 30
0.0
 10
13.987119
 20
20.303032
 30
0.0
 10
14.733564
 20
20.238382
 30
0.0
 10
15.582899
 20
19.961820
 30
0.0
 10
16.391799
 20
19.503952
 30
0.0
 10
17.256599
 20
18.656197
 30
0.0
 10
17.979886
 20
17.540040
 30
0.0
 10
18.476391
 20
16.318867
 30
0.0
 10
18.660841
 20
15.156067
 30
0.0
 10
18.641979
 20
14.811240
 30
0.0
 10
18.569746
 20
14.544172
 30
0.0
 10
18.420660
 20
14.300685
 30
0.0
 10
18.171237
 20
14.026620
 30
0.0
 10
17.734800
 20
13.685550
 30
0.0
 10
17.257719
 20
13.546762
 30
0.0
 10
16.655298
 20
13.603837
 30
0.0
 10
15.842840
 20
13.850377
 30
0.0
 10
15.484984
 20
13.964977
 30
0.0
 10
15.156710
 20
14.045302
 30
0.0
 10
14.894389
 20
14.084002
 30
0.0
 10
14.734392
 20
14.073802
 30
0.0
 10
14.387321
 20
13.611885
 30
0.0
 10
14.199457
 20
12.741240
 30
0.0
 10
14.200282
 20
11.754682
 30
0.0
 10
14.419291
 20
10.944997
 30
0.0
 10
14.639576
 20
10.267252
 30
0.0
 10
14.693006
 20
9.446647
 30
0.0
 10
14.583933
 20
8.612595
 30
0.0
 10
14.316707
 20
7.894485
 30
0.0
 10
14.229073
 20
7.737690
 30
0.0
 10
14.141439
 20
7.580895
 30
0.0
 10
14.053806
 20
7.424107
 30
0.0
 10
13.966172
 20
7.267312
 30
0.0
 10
14.067004
 20
7.107787
 30
0.0
 10
14.167836
 20
6.948262
 30
0.0
 10
14.268667
 20
6.788745
 30
0.0
 10
14.369499
 20
6.629220
 30
0.0
 10
14.707797
 20
5.762302
 30
0.0
 10
14.707629
 20
4.789432
 30
0.0
 10
14.373323
 20
3.736815
 30
0.0
 10
13.709207
 20
2.630670
 30
0.0
 10
12.522137
 20
1.424197
 30
0.0
 10
11.093592
 20
0.590670
 30
0.0
 10
9.600760
 20
0.204082
 30
0.0
  0
ENDSEC
  0
SECTION
  2
OBJECTS
  0
DICTIONARY
  5
C
330
0
100
AcDbDictionary
  3
ACAD_GROUP
350
D
  3
ACAD_MLINESTYLE
350
17
  0
DICTIONARY
  5
D
330
C
100
AcDbDictionary
  0
DICTIONARY
  5
1A
330
C
100
AcDbDictionary
  0
DICTIONARY
  5
17
330
C
100
AcDbDictionary
  3
STANDARD
350
18
  0
DICTIONARY
  5
19
330
C
100
AcDbDictionary
  0
ENDSEC
  0
EOF
